<svg xmlns="http://www.w3.org/2000/svg" viewBox="0 0 1200 700">
  <defs>
    <linearGradient id="sky" x1="0" y1="0" x2="0" y2="1">
      <stop offset="0%" stop-color="#66745e"/>
      <stop offset="46%" stop-color="#2e3427"/>
      <stop offset="100%" stop-color="#0a0c09"/>
    </linearGradient>
    <linearGradient id="fog" x1="0" y1="0" x2="1" y2="0">
      <stop offset="0%" stop-color="#1d2118" stop-opacity=".08"/>
      <stop offset="40%" stop-color="#0d100c" stop-opacity=".5"/>
      <stop offset="100%" stop-color="#080907" stop-opacity=".9"/>
    </linearGradient>
  </defs>
  <rect width="1200" height="700" fill="url(#sky)"/>
  <g fill="#4c5744" opacity=".55">
    <path d="M0 350 L120 220 L220 320 L360 170 L500 320 L610 200 L740 330 L920 150 L1080 300 L1200 210 L1200 700 L0 700 Z"/>
  </g>
  <g fill="#111411">
    <rect x="120" y="340" width="90" height="160"/>
    <polygon points="105,340 165,290 225,340"/>
    <rect x="255" y="330" width="120" height="170"/>
    <polygon points="235,330 315,275 395,330"/>
    <rect x="440" y="320" width="95" height="180"/>
    <polygon points="425,320 487,270 550,320"/>
    <rect x="610" y="345" width="100" height="155"/>
    <polygon points="594,345 660,298 726,345"/>
    <rect x="800" y="335" width="130" height="165"/>
    <polygon points="780,335 865,270 950,335"/>
  </g>
  <g fill="#1f2e1f" opacity=".9">
    <path d="M0 525 C110 500 230 565 350 535 S585 480 720 540 S980 605 1200 545 L1200 700 L0 700 Z"/>
    <path d="M0 610 C120 585 220 640 350 620 S565 590 715 630 S980 680 1200 630 L1200 700 L0 700 Z" fill="#263627"/>
  </g>
  <g stroke="#314734" stroke-width="5" opacity=".5">
    <path d="M145 395 C170 370 190 425 205 410"/>
    <path d="M475 380 C505 350 525 420 545 395"/>
    <path d="M845 375 C875 345 900 415 925 388"/>
  </g>
  <rect width="1200" height="700" fill="url(#fog)"/>
</svg>
