<svg xmlns="http://www.w3.org/2000/svg" viewBox="0 0 1200 700">
  <defs>
    <linearGradient id="sky" x1="0" y1="0" x2="0" y2="1">
      <stop offset="0%" stop-color="#615038"/>
      <stop offset="40%" stop-color="#23271f"/>
      <stop offset="100%" stop-color="#090b08"/>
    </linearGradient>
    <radialGradient id="light" cx="58%" cy="24%" r="28%">
      <stop offset="0%" stop-color="#c7a46b" stop-opacity=".5"/>
      <stop offset="60%" stop-color="#7f6943" stop-opacity=".14"/>
      <stop offset="100%" stop-color="#000" stop-opacity="0"/>
    </radialGradient>
    <linearGradient id="shade" x1="0" y1="0" x2="1" y2="0">
      <stop offset="0%" stop-color="#11140f" stop-opacity=".12"/>
      <stop offset="35%" stop-color="#090b08" stop-opacity=".5"/>
      <stop offset="100%" stop-color="#070806" stop-opacity=".92"/>
    </linearGradient>
  </defs>
  <rect width="1200" height="700" fill="url(#sky)"/>
  <rect width="1200" height="700" fill="url(#light)"/>
  <g fill="#101311">
    <rect x="90" y="250" width="95" height="320"/>
    <rect x="170" y="190" width="130" height="380"/>
    <rect x="290" y="300" width="80" height="270"/>
    <rect x="355" y="160" width="120" height="410"/>
    <rect x="465" y="220" width="75" height="350"/>
    <rect x="760" y="260" width="85" height="310"/>
    <rect x="830" y="185" width="130" height="385"/>
    <rect x="945" y="230" width="90" height="340"/>
    <rect x="1020" y="170" width="120" height="400"/>
  </g>
  <g fill="none" stroke="#2d3f30" stroke-width="10" opacity=".8">
    <path d="M180 260 L415 210 L720 235 L965 190" />
    <path d="M210 260 L210 355 M290 250 L290 335 M375 220 L375 305 M810 230 L810 320 M900 210 L900 300" />
  </g>
  <g fill="#172319" opacity=".92">
    <path d="M0 560 C120 520 220 580 340 555 S550 500 690 560 S960 635 1200 570 L1200 700 L0 700 Z"/>
    <path d="M0 620 C130 590 240 655 365 625 S610 570 760 630 S1000 690 1200 625 L1200 700 L0 700 Z" fill="#223223"/>
  </g>
  <rect width="1200" height="700" fill="url(#shade)"/>
</svg>
