<svg xmlns="http://www.w3.org/2000/svg" viewBox="0 0 1200 700">
  <defs>
    <linearGradient id="sky" x1="0" y1="0" x2="0" y2="1">
      <stop offset="0%" stop-color="#5c4b31"/>
      <stop offset="45%" stop-color="#2a2c20"/>
      <stop offset="100%" stop-color="#0a0d08"/>
    </linearGradient>
    <radialGradient id="sun" cx="50%" cy="22%" r="30%">
      <stop offset="0%" stop-color="#bca067" stop-opacity=".55"/>
      <stop offset="60%" stop-color="#7b6b44" stop-opacity=".16"/>
      <stop offset="100%" stop-color="#000" stop-opacity="0"/>
    </radialGradient>
    <linearGradient id="fog" x1="0" y1="0" x2="1" y2="0">
      <stop offset="0%" stop-color="#11140f" stop-opacity=".08"/>
      <stop offset="35%" stop-color="#0b0d09" stop-opacity=".62"/>
      <stop offset="100%" stop-color="#090b08" stop-opacity=".96"/>
    </linearGradient>
  </defs>
  <rect width="1200" height="700" fill="url(#sky)"/>
  <rect width="1200" height="700" fill="url(#sun)"/>
  <g fill="#111411">
    <rect x="40" y="310" width="90" height="260"/>
    <rect x="120" y="240" width="80" height="330"/>
    <rect x="185" y="180" width="110" height="390"/>
    <rect x="285" y="280" width="70" height="290"/>
    <rect x="345" y="120" width="145" height="450"/>
    <rect x="475" y="250" width="85" height="320"/>
    <rect x="540" y="205" width="125" height="365"/>
    <rect x="640" y="145" width="70" height="425"/>
    <rect x="700" y="230" width="95" height="340"/>
    <rect x="785" y="170" width="150" height="400"/>
    <rect x="915" y="255" width="90" height="315"/>
    <rect x="990" y="215" width="120" height="355"/>
  </g>
  <g fill="#1b2a1c" opacity=".9">
    <path d="M0 570 C80 500 140 540 230 570 S390 635 480 585 S610 510 720 565 S910 650 1200 560 L1200 700 L0 700 Z"/>
    <path d="M0 625 C110 580 200 650 300 620 S500 560 620 620 S850 685 1200 610 L1200 700 L0 700 Z" fill="#223123"/>
  </g>
  <g stroke="#314533" stroke-width="6" opacity=".5">
    <path d="M125 420 C170 390 200 470 250 430"/>
    <path d="M420 355 C470 300 520 410 585 340"/>
    <path d="M835 330 C870 280 930 380 1000 320"/>
  </g>
  <rect width="1200" height="700" fill="url(#fog)"/>
</svg>
